<svg width="15" height="16" fill="none" xmlns="http://www.w3.org/2000/svg"><path d="M.667 4c.366 0 .666-.3.666-.667v-.667A.67.67 0 0 1 2 2h.667c.366 0 .666-.3.666-.667 0-.366-.3-.666-.666-.666H2c-1.107 0-2 .893-2 2v.667c0 .365.3.665.667.665Zm2 10H2a.669.669 0 0 1-.667-.666v-.668a.668.668 0 0 0-1.333 0v.668c0 1.107.893 2 2 2h.667a.668.668 0 0 0 0-1.333v-.002Zm10-13.333h-.666c-.367 0-.667.3-.667.666 0 .367.3.667.667.667h.666c.367 0 .667.3.667.667v.667c0 .365.3.665.667.665.366 0 .666-.3.666-.666v-.667c0-1.106-.893-2-2-2Zm1.334 11.332c-.367 0-.667.3-.667.667v.668c0 .367-.3.667-.667.667h-.666c-.367 0-.667.3-.667.665 0 .367.3.668.667.668h.666c1.107 0 2-.893 2-2v-.668c0-.367-.3-.665-.666-.665v-.002Zm-2.002-2.085V6.087c0-.48-.253-.92-.666-1.153l-3.334-1.92a1.317 1.317 0 0 0-1.333 0L3.333 4.925c-.414.24-.667.68-.667 1.16v3.826c0 .48.253.92.667 1.153l3.333 1.92a1.317 1.317 0 0 0 1.333 0l3.335-1.918A1.32 1.32 0 0 0 12 9.913h-.001Zm-5.333 1.533L3.999 9.914V6.827L6.666 8.38v3.066Zm.667-4.22-2.64-1.54 2.64-1.52 2.64 1.52-2.64 1.54Zm3.333 2.687-2.667 1.533V8.38l2.667-1.554v3.088Z" fill="#9C9C9C"/></svg>