<svg width="32" height="32" fill="none" xmlns="http://www.w3.org/2000/svg"><path d="M25.947 13.333a1.333 1.333 0 0 0-.094 1.334c.331.772.564 1.582.694 2.413a10.667 10.667 0 0 1-.92 6.307 1.333 1.333 0 0 1-1.187.706H7.573a1.333 1.333 0 0 1-1.186-.72A10.667 10.667 0 0 1 17.333 8.08c.969.114 1.916.365 2.814.747a1.334 1.334 0 0 0 1.333-.094 1.333 1.333 0 0 0-.227-2.346A13.333 13.333 0 0 0 4.467 25.333a2.666 2.666 0 0 0 2.293 1.334h18.467a2.668 2.668 0 0 0 2.32-1.334 13.333 13.333 0 0 0 .733-11.853 1.333 1.333 0 0 0-2.333-.147Z" fill="url(#a)"/><path d="M14.12 16.787a2.668 2.668 0 1 0 3.773 3.773L25.44 9.24l-11.32 7.547Z" fill="url(#b)"/><defs><linearGradient id="a" x1="15.998" y1="5.308" x2="15.998" y2="26.667" gradientUnits="userSpaceOnUse"><stop stop-color="#FB0"/><stop offset="1" stop-color="#F2A50C"/></linearGradient><linearGradient id="b" x1="19.389" y1="9.24" x2="19.389" y2="21.341" gradientUnits="userSpaceOnUse"><stop stop-color="#FB0"/><stop offset="1" stop-color="#F2A50C"/></linearGradient></defs></svg>