<svg width="136" height="28" viewBox="0 0 136 28" fill="none" xmlns="http://www.w3.org/2000/svg">
<path d="M5.13273 10.9673C5.79265 10.0269 6.69699 9.2628 7.84574 8.67506C9.01894 8.08732 10.351 7.79345 11.8419 7.79345C13.5773 7.79345 15.1415 8.20487 16.5347 9.02771C17.9523 9.85055 19.0644 11.026 19.871 12.5542C20.702 14.0588 21.1175 15.8102 21.1175 17.8086C21.1175 19.8069 20.702 21.5819 19.871 23.1335C19.0644 24.6616 17.9523 25.8489 16.5347 26.6952C15.1415 27.5416 13.5773 27.9647 11.8419 27.9647C10.3266 27.9647 8.9945 27.6826 7.84574 27.1184C6.72143 26.5306 5.81709 25.7783 5.13273 24.8615V27.6474H0V1.55164H5.13273V10.9673ZM15.8748 17.8086C15.8748 16.6331 15.6182 15.6222 15.1049 14.7758C14.6161 13.906 13.9561 13.2477 13.1251 12.801C12.323 12.3554 11.4117 12.1241 10.4854 12.131C9.55665 12.131 8.67675 12.3661 7.84574 12.8363C7.03917 13.283 6.37925 13.9412 5.86598 14.8111C5.37714 15.6809 5.13273 16.7036 5.13273 17.8791C5.13273 19.0546 5.37714 20.0772 5.86598 20.9471C6.37925 21.817 7.03917 22.487 7.84574 22.9572C8.67675 23.4039 9.55665 23.6272 10.4854 23.6272C11.4387 23.6272 12.3185 23.3921 13.1251 22.9219C13.9561 22.4517 14.6161 21.7817 15.1049 20.9118C15.6182 20.042 15.8748 19.0076 15.8748 17.8086ZM27.4499 5.78338C26.5456 5.78338 25.7879 5.51301 25.1768 4.97229C24.5903 4.40806 24.297 3.71453 24.297 2.89169C24.297 2.06885 24.5903 1.38707 25.1768 0.846348C25.7879 0.282116 26.5456 0 27.4499 0C28.3543 0 29.0997 0.282116 29.6863 0.846348C30.2974 1.38707 30.6029 2.06885 30.6029 2.89169C30.6029 3.71453 30.2974 4.40806 29.6863 4.97229C29.0997 5.51301 28.3543 5.78338 27.4499 5.78338ZM29.9796 8.11083V27.6474H24.8469V8.11083H29.9796ZM47.0765 27.6474L40.184 19.3249V27.6474H35.0512V1.55164H40.184V16.398L47.0032 8.11083H53.6757L44.7301 17.9144L53.749 27.6474H47.0765ZM54.1228 17.8791C54.1228 15.8573 54.5505 14.094 55.406 12.5894C56.2614 11.0613 57.4468 9.88581 58.9622 9.06297C60.4776 8.21663 62.2129 7.79345 64.1683 7.79345C66.6858 7.79345 68.7633 8.4047 70.4009 9.6272C72.0629 10.8262 73.175 12.5189 73.7371 14.7053H68.2021C67.9089 13.8589 67.4078 13.2007 66.699 12.7305C66.0146 12.2368 65.1592 11.9899 64.1326 11.9899C62.6661 11.9899 61.5052 12.5071 60.6497 13.5416C59.7943 14.5525 59.3665 15.9983 59.3665 17.8791C59.3665 19.7364 59.7943 21.1822 60.6497 22.2166C61.5052 23.2275 62.6661 23.733 64.1326 23.733C66.2102 23.733 67.5667 22.8396 68.2021 21.0529H73.7382C73.176 23.1688 72.0639 24.8497 70.4019 26.0957C68.7399 27.3417 66.6623 27.9647 64.1693 27.9647C62.214 27.9647 60.4786 27.5533 58.9632 26.7305C57.4599 25.8961 56.2283 24.6749 55.407 23.204C54.5515 21.6759 54.1228 19.9009 54.1228 17.8791ZM81.6124 11.1436C82.2418 10.1381 83.1244 9.3012 84.1788 8.71033C85.2542 8.12259 86.4763 7.82872 87.845 7.82872V13.0126H86.4885C84.8754 13.0126 83.6533 13.377 82.8223 14.1058C82.0157 14.8346 81.6124 16.1041 81.6124 17.9144V27.6474H76.4797V8.11083H81.6124V11.1436ZM103.583 24.8615C103.021 25.7548 102.105 26.5071 100.834 27.1184C99.5627 27.7061 98.194 28 96.7275 28C95.4565 28 94.3078 27.7531 93.2812 27.2594C92.2547 26.7657 91.4481 26.084 90.8615 25.2141C90.2749 24.3442 89.9816 23.3451 89.9816 22.2166C89.9816 20.4064 90.6782 18.9253 92.0714 17.7733C93.489 16.6213 95.6032 16.0453 98.414 16.0453H103.583C103.534 14.7993 103.156 13.8119 102.447 13.0831C101.762 12.3308 100.809 11.9547 99.5872 11.9547C98.5117 11.9547 97.6196 12.2368 96.9108 12.801C96.202 13.3417 95.7498 14.1058 95.5543 15.0932H90.4216C90.666 13.6826 91.1915 12.4249 91.998 11.3199C92.8218 10.1973 93.9332 9.29836 95.2243 8.71033C96.5686 8.07557 98.0718 7.75819 99.7338 7.75819C101.445 7.75819 102.985 8.09908 104.353 8.78086C105.713 9.43217 106.846 10.449 107.616 11.7078C108.398 12.9773 108.789 14.4702 108.789 16.1864V27.6474H103.583V24.8615ZM98.2307 24.0151C99.0861 24.0151 99.9171 23.8388 100.724 23.4861C101.555 23.1335 102.239 22.6045 102.777 21.8992C103.314 21.194 103.583 20.3594 103.583 19.3955V19.2544H98.7073C97.5341 19.2544 96.6542 19.4778 96.0676 19.9244C95.5054 20.3711 95.2243 20.9589 95.2243 21.6877C95.2243 22.3929 95.481 22.9572 95.9942 23.3804C96.532 23.8035 97.2774 24.0151 98.2307 24.0151ZM119.614 12.1662V27.6474H114.408V12.1662H112.098V8.11083H114.408V7.12343C114.408 4.72544 115.117 2.96222 116.534 1.83375C117.952 0.70529 120.091 0.176323 122.95 0.246851V4.40806C121.704 4.38455 120.836 4.58438 120.347 5.00756C119.858 5.43073 119.614 6.19479 119.614 7.29975V8.11083H126.284V3.2796H131.454V8.11083H136V12.1662H131.454V21.6171C131.454 22.2754 131.613 22.7573 131.93 23.063C132.273 23.3451 132.835 23.4861 133.617 23.4861H136V27.6474H132.774C128.448 27.6474 126.284 25.6255 126.284 21.5819V12.1662H119.614Z" fill="white"/>
</svg>
