<svg width="32" height="32" viewBox="0 0 32 32" fill="none" xmlns="http://www.w3.org/2000/svg">
<g clip-path="url(#clip0_141_164)">
<circle cx="16" cy="16" r="16" fill="white"/>
<path d="M23.5833 13.4988H22.695L20.8533 8.42972C20.7009 8.01175 20.4239 7.65058 20.0597 7.39493C19.6955 7.13927 19.2617 7.00143 18.8167 7H17.0833C16.4875 7 16 7.48741 16 8.08312C16 8.67884 16.4875 9.16625 17.0833 9.16625H18.8167L20.3983 13.4988H15.1875L14.7975 12.4156H14.895C15.4908 12.4156 15.9783 11.9282 15.9783 11.3325C15.9783 10.7368 15.4908 10.2494 14.895 10.2494H11.6667C11.0708 10.2494 10.5833 10.7368 10.5833 11.3325C10.5833 11.9282 11.0708 12.4156 11.6667 12.4156H12.4792L14.4508 17.8312H13.725C13.2483 15.4159 11.2225 13.6287 8.6875 13.5096C5.65417 13.3579 3 15.8816 3 18.9144C3 21.9471 5.38333 24.33 8.41667 24.33C11.0817 24.33 13.2375 22.4995 13.725 19.9975H18.275C18.7517 22.4129 20.7775 24.2 23.3125 24.3192C26.3458 24.46 29 21.9471 29 18.9035C29 15.8816 26.6167 13.4988 23.5833 13.4988ZM9.5 19.9975H11.4717C11.0167 21.3297 9.73833 22.2504 8.2 22.1529C6.58583 22.0554 5.2425 20.6907 5.16667 19.066C5.09083 17.1705 6.5425 15.665 8.41667 15.665C9.8575 15.665 11.0383 16.564 11.4717 17.8312H9.5C8.90417 17.8312 8.41667 18.3187 8.41667 18.9144C8.41667 19.5101 8.90417 19.9975 9.5 19.9975ZM18.275 17.8312H16.7583L15.9675 15.665H19.25C18.7733 16.2932 18.4267 17.0189 18.275 17.8312ZM23.4533 22.1638C21.785 22.0988 20.3767 20.6799 20.3333 19.001C20.3117 17.9612 20.7558 17.0514 21.4708 16.4449L22.1425 18.2862C22.3483 18.8494 22.9658 19.1418 23.5292 18.936C24.0925 18.7302 24.385 18.1129 24.1792 17.5496L23.4967 15.6758L23.5075 15.665C23.9418 15.6502 24.3747 15.7235 24.7799 15.8806C25.1851 16.0377 25.5543 16.2753 25.8651 16.5789C26.1759 16.8826 26.422 17.2461 26.5884 17.6475C26.7548 18.0489 26.8381 18.4799 26.8333 18.9144C26.8333 20.7773 25.3383 22.2287 23.4533 22.1638Z" fill="url(#paint0_linear_141_164)"/>
</g>
<defs>
<linearGradient id="paint0_linear_141_164" x1="16" y1="7" x2="16" y2="24.33" gradientUnits="userSpaceOnUse">
<stop stop-color="#FFB60D"/>
<stop offset="1" stop-color="#E59317"/>
</linearGradient>
<clipPath id="clip0_141_164">
<rect width="32" height="32" fill="white"/>
</clipPath>
</defs>
</svg>
