<svg width="164" height="38" fill="none" xmlns="http://www.w3.org/2000/svg"><path d="M2.688 30.072c-.812 0-1.47-.252-1.974-.756C.238 28.812 0 28.154 0 27.342V2.772C0 1.96.224 1.33.672.882 1.148.434 1.792.21 2.604.21h14.742c1.708 0 2.562.728 2.562 2.184 0 1.428-.854 2.142-2.562 2.142H5.334V12.6h11.172c1.708 0 2.562.728 2.562 2.184 0 1.428-.854 2.142-2.562 2.142H5.334v10.416c0 .812-.238 1.47-.714 1.974s-1.12.756-1.932.756Zm24.925 0c-.756 0-1.386-.21-1.89-.63-.476-.448-.714-1.078-.714-1.89V2.478c0-.812.238-1.428.714-1.848.504-.42 1.134-.63 1.89-.63s1.386.21 1.89.63c.504.42.756 1.036.756 1.848v25.074c0 .812-.252 1.442-.756 1.89-.504.42-1.134.63-1.89.63Zm24.314-5.88c.476 0 .854.182 1.134.546.308.364.462.854.462 1.47 0 .868-.518 1.596-1.554 2.184-.952.532-2.03.966-3.234 1.302-1.204.308-2.352.462-3.444.462-3.304 0-5.922-.952-7.854-2.856-1.932-1.904-2.898-4.508-2.898-7.812 0-2.1.42-3.962 1.26-5.586.84-1.624 2.016-2.884 3.528-3.78 1.54-.896 3.276-1.344 5.208-1.344 1.848 0 3.458.406 4.83 1.218 1.372.812 2.436 1.96 3.192 3.444.756 1.484 1.134 3.234 1.134 5.25 0 1.204-.532 1.806-1.596 1.806h-12.39c.168 1.932.714 3.36 1.638 4.284.924.896 2.268 1.344 4.032 1.344.896 0 1.68-.112 2.352-.336.7-.224 1.484-.532 2.352-.924.84-.448 1.456-.672 1.848-.672ZM44.66 12.474c-1.428 0-2.576.448-3.444 1.344-.84.896-1.344 2.184-1.512 3.864h9.492c-.056-1.708-.476-2.996-1.26-3.864-.784-.896-1.876-1.344-3.276-1.344Zm30.723 13.482c.504.504.756 1.078.756 1.722 0 .616-.238 1.176-.714 1.68-.476.476-1.036.714-1.68.714-.7 0-1.302-.294-1.806-.882l-5.922-6.552-5.922 6.552c-.532.56-1.134.84-1.806.84-.616 0-1.162-.238-1.638-.714s-.714-1.022-.714-1.638c0-.644.252-1.218.756-1.722l6.132-6.678-5.796-6.3c-.504-.504-.756-1.078-.756-1.722 0-.644.238-1.19.714-1.638.476-.476 1.022-.714 1.638-.714.672 0 1.274.28 1.806.84l5.586 6.132 5.586-6.132c.532-.56 1.134-.84 1.806-.84.644 0 1.19.238 1.638.714.476.448.714.994.714 1.638 0 .644-.252 1.218-.756 1.722l-5.796 6.3 6.174 6.678Zm23.236-11.424c1.708.476 3.024 1.344 3.948 2.604.952 1.26 1.428 2.8 1.428 4.62 0 2.52-.91 4.494-2.73 5.922-1.792 1.428-4.27 2.142-7.434 2.142H82.995c-.812 0-1.456-.224-1.932-.672-.448-.448-.672-1.078-.672-1.89V2.772c0-.812.224-1.442.672-1.89.476-.448 1.12-.672 1.932-.672H93.41c3.08 0 5.488.686 7.224 2.058 1.764 1.344 2.646 3.234 2.646 5.67 0 1.568-.42 2.926-1.26 4.074-.812 1.148-1.946 1.988-3.402 2.52h.001Zm-12.936-1.848h6.846c3.724 0 5.586-1.386 5.586-4.158 0-1.4-.462-2.436-1.386-3.108-.924-.672-2.324-1.008-4.2-1.008h-6.846v8.274Zm7.56 12.936c1.96 0 3.388-.35 4.284-1.05.896-.7 1.344-1.792 1.344-3.276 0-1.484-.462-2.59-1.386-3.318-.896-.728-2.31-1.092-4.242-1.092h-7.56v8.736h7.56Zm17.96 4.452c-.756 0-1.386-.21-1.89-.63-.476-.448-.714-1.078-.714-1.89V2.478c0-.812.238-1.428.714-1.848.504-.42 1.134-.63 1.89-.63s1.386.21 1.89.63c.504.42.756 1.036.756 1.848v25.074c0 .812-.252 1.442-.756 1.89-.504.42-1.134.63-1.89.63Zm17.426.084c-2.1 0-3.948-.434-5.544-1.302-1.568-.868-2.786-2.114-3.654-3.738-.868-1.624-1.302-3.514-1.302-5.67s.434-4.032 1.302-5.628c.868-1.624 2.086-2.87 3.654-3.738 1.596-.868 3.444-1.302 5.544-1.302 2.1 0 3.934.434 5.502 1.302a8.717 8.717 0 0 1 3.654 3.738c.868 1.596 1.302 3.472 1.302 5.628s-.434 4.046-1.302 5.67a8.717 8.717 0 0 1-3.654 3.738c-1.568.868-3.402 1.302-5.502 1.302Zm-.042-4.074c1.708 0 3.01-.56 3.906-1.68.896-1.12 1.344-2.772 1.344-4.956 0-2.156-.448-3.794-1.344-4.914-.896-1.148-2.184-1.722-3.864-1.722-1.68 0-2.982.574-3.906 1.722-.896 1.12-1.344 2.758-1.344 4.914 0 2.184.448 3.836 1.344 4.956.896 1.12 2.184 1.68 3.864 1.68Zm32.222-17.22c.784 0 1.414.224 1.89.672.476.448.714 1.05.714 1.806v16.59c0 3.22-.896 5.656-2.688 7.308-1.792 1.652-4.438 2.478-7.938 2.478-3.052 0-5.6-.574-7.644-1.722-1.036-.616-1.554-1.358-1.554-2.226 0-.616.14-1.106.42-1.47.308-.364.7-.546 1.176-.546.252 0 .56.056.924.168.364.14.742.294 1.134.462 1.008.42 1.904.742 2.688.966.812.224 1.736.336 2.772.336 3.668 0 5.502-1.792 5.502-5.376V25.62c-.616 1.148-1.512 2.044-2.688 2.688-1.176.616-2.52.924-4.032.924-1.792 0-3.388-.42-4.788-1.26-1.372-.868-2.45-2.072-3.234-3.612-.784-1.54-1.176-3.318-1.176-5.334 0-2.016.378-3.794 1.134-5.334.784-1.568 1.876-2.772 3.276-3.612 1.4-.868 2.996-1.302 4.788-1.302 1.512 0 2.856.322 4.032.966a6.286 6.286 0 0 1 2.688 2.646v-1.092c0-.728.238-1.316.714-1.764.476-.448 1.106-.672 1.89-.672Zm-7.938 16.296c1.68 0 2.982-.546 3.906-1.638.952-1.092 1.428-2.59 1.428-4.494 0-1.932-.476-3.444-1.428-4.536-.924-1.092-2.226-1.638-3.906-1.638-1.652 0-2.954.546-3.906 1.638-.952 1.092-1.428 2.604-1.428 4.536 0 1.904.476 3.402 1.428 4.494.952 1.092 2.254 1.638 3.906 1.638Z" fill="#9C9C9C"/></svg>