<svg width="148" height="36" fill="none" xmlns="http://www.w3.org/2000/svg"><path d="M48.624 35.52V0h-8.976L20.88 27.408l-3.168-3.984c5.664-.864 8.832-5.856 8.832-11.184 0-5.088-2.784-9.36-6.528-10.992C18.144.432 15.36 0 11.664 0H0v35.52h8.688V24.048h.096l8.208 11.472h9.168l3.12-5.136h10.272v5.136h9.072ZM8.688 17.856V7.968h3.456c3.408 0 5.712 1.728 5.712 4.8 0 3.264-2.16 5.088-5.76 5.088H8.688Zm30.864 5.328H33.6l5.856-9.84h.096v9.84ZM85.03 35.52V0h-8.688l.384 22.464L62.902 0h-7.824v35.52h8.688l-.24-21.696L77.158 35.52h7.872Zm26.198 0v-7.968h-11.04v-6.096h10.704v-7.968h-10.704v-5.52h11.04V0H91.5v35.52h19.728Zm36.062 0-12.528-17.808L146.522 0h-9.504l-10.032 15.984h-.096V0h-9.072v35.52h9.072V20.16h.096l9.696 15.36h10.608Z" fill="#9C9C9C"/></svg>