<svg width="52" height="52" fill="none" xmlns="http://www.w3.org/2000/svg"><path d="M48 14a2 2 0 1 1 4 0 2 2 0 0 1-4 0ZM48 2a2 2 0 1 1 4 0 2 2 0 0 1-4 0ZM36 38a2 2 0 1 1 4 0 2 2 0 0 1-4 0ZM36 26a2 2 0 1 1 4 0 2 2 0 0 1-4 0ZM36 14a2 2 0 1 1 4 0 2 2 0 0 1-4 0ZM36 2a2 2 0 1 1 4 0 2 2 0 0 1-4 0ZM24 38a2 2 0 1 1 4 0 2 2 0 0 1-4 0ZM24 26a2 2 0 1 1 4 0 2 2 0 0 1-4 0ZM24 14a2 2 0 1 1 4 0 2 2 0 0 1-4 0ZM24 2a2 2 0 1 1 4 0 2 2 0 0 1-4 0ZM12 50a2 2 0 1 1 4 0 2 2 0 0 1-4 0ZM12 38a2 2 0 1 1 4 0 2 2 0 0 1-4 0ZM12 26a2 2 0 1 1 4 0 2 2 0 0 1-4 0ZM12 14a2 2 0 1 1 4 0 2 2 0 0 1-4 0ZM12 2a2 2 0 1 1 4 0 2 2 0 0 1-4 0ZM0 50a2 2 0 1 1 4 0 2 2 0 0 1-4 0ZM0 38a2 2 0 1 1 4 0 2 2 0 0 1-4 0ZM0 26a2 2 0 1 1 4 0 2 2 0 0 1-4 0ZM0 14a2 2 0 1 1 4 0 2 2 0 0 1-4 0ZM0 2a2 2 0 1 1 4 0 2 2 0 0 1-4 0Z" fill="#E6A40B"/></svg>